<?xml version="1.0" encoding="utf-8"?>
<!-- Generator: Adobe Illustrator 26.2.1, SVG Export Plug-In . SVG Version: 6.00 Build 0)  -->
<svg version="1.1" id="Ebene_1" xmlns="http://www.w3.org/2000/svg" xmlns:xlink="http://www.w3.org/1999/xlink" x="0px" y="0px"
	 viewBox="0 0 144.6 144.6" style="enable-background:new 0 0 144.6 144.6;" xml:space="preserve">
<style type="text/css">
	.st0{fill:#FFFFFF;}
	.st1{fill:#0A1450;}
	.st2{fill:#E6FF23;}
	.st3{fill:#212247;}
</style>
<circle class="st1" cx="72.3" cy="72.3" r="70.9"/>
<g>
	<path class="st2" d="M28.1,39.3c0.3,0.2,0.8,0.3,1.6,0.3c0.8,0,1.3-0.1,1.6-0.3c0.3-0.2,0.5-0.5,0.6-0.8c0.1-0.3,0.1-0.7,0.1-1.1
		V24.7c0-0.4,0-0.7-0.1-1.1c-0.1-0.3-0.3-0.6-0.6-0.8c-0.3-0.2-0.8-0.3-1.6-0.3c-0.8,0-1.3,0.1-1.6,0.3c-0.3,0.2-0.5,0.5-0.6,0.8
		c-0.1,0.3-0.1,0.7-0.1,1.1v12.7c0,0.4,0,0.7,0.1,1.1C27.6,38.8,27.8,39.1,28.1,39.3"/>
	<path class="st2" d="M37,36.9c0.7,0.7,1.4,1.3,2.2,1.7c0.8,0.4,1.6,0.8,2.4,1c0.8,0.2,1.5,0.3,2.1,0.3c0.9,0,1.7-0.1,2.3-0.3
		c0.6-0.2,1.1-0.4,1.5-0.6c0.4-0.2,0.6-0.4,0.7-0.4c0.3-0.2,0.6-0.4,0.9-0.7c0.3-0.2,0.4-0.6,0.4-1c0-0.2,0-0.4-0.1-0.7
		c-0.1-0.2-0.2-0.5-0.4-0.8c-0.3-0.5-0.6-0.8-0.9-1.1c-0.3-0.2-0.6-0.3-0.8-0.3c-0.2,0-0.4,0-0.6,0.1c-0.2,0.1-0.4,0.2-0.6,0.3
		c-0.2,0.1-0.4,0.3-0.7,0.4c-0.2,0.1-0.5,0.2-0.8,0.3c-0.3,0.1-0.7,0.1-1.1,0.1c-0.4,0-0.9-0.1-1.4-0.2c-0.5-0.2-1-0.4-1.4-0.7
		c-0.4-0.3-0.8-0.8-1.1-1.3c-0.3-0.5-0.4-1.2-0.4-2c0-0.8,0.1-1.4,0.4-2c0.3-0.5,0.6-1,1.1-1.3c0.4-0.3,0.9-0.6,1.4-0.7
		c0.5-0.2,1-0.2,1.4-0.2c0.5,0,0.9,0,1.2,0.1c0.3,0.1,0.6,0.2,0.7,0.3c0.2,0.1,0.3,0.2,0.4,0.3c0.3,0.2,0.5,0.3,0.7,0.4
		c0.2,0.1,0.4,0.1,0.6,0.1c0.3,0,0.6-0.1,0.8-0.3c0.3-0.2,0.6-0.5,0.9-1c0.2-0.2,0.3-0.5,0.4-0.7c0.1-0.2,0.1-0.5,0.1-0.7
		c0-0.4-0.1-0.8-0.4-1c-0.3-0.3-0.6-0.5-0.9-0.7c-0.1-0.1-0.3-0.2-0.8-0.4c-0.4-0.2-0.9-0.4-1.6-0.6c-0.6-0.2-1.4-0.3-2.2-0.3
		c-0.7,0-1.4,0.1-2.2,0.3c-0.8,0.2-1.6,0.5-2.4,0.9c-0.8,0.4-1.5,1-2.2,1.7c-0.7,0.7-1.2,1.5-1.6,2.5c-0.4,1-0.6,2-0.6,3.3
		c0,1.3,0.2,2.4,0.6,3.4C35.8,35.4,36.4,36.2,37,36.9"/>
	<path class="st2" d="M52.8,39.3c0.3,0.2,0.8,0.3,1.6,0.3c0.8,0,1.3-0.1,1.6-0.3c0.3-0.2,0.5-0.5,0.6-0.8c0.1-0.3,0.1-0.7,0.1-1.1
		V33h5.6v4.4c0,0.4,0,0.7,0.1,1.1c0.1,0.4,0.3,0.6,0.6,0.9c0.3,0.2,0.8,0.3,1.6,0.3c0.8,0,1.3-0.1,1.6-0.3c0.3-0.2,0.5-0.5,0.6-0.8
		c0.1-0.3,0.1-0.7,0.1-1.1V24.7c0-0.4,0-0.7-0.1-1.1c-0.1-0.3-0.3-0.6-0.6-0.8c-0.3-0.2-0.8-0.3-1.6-0.3s-1.3,0.1-1.6,0.3
		c-0.3,0.2-0.5,0.5-0.6,0.8c-0.1,0.3-0.1,0.7-0.1,1.1v4.4h-5.6v-4.4c0-0.4,0-0.7-0.1-1.1c-0.1-0.3-0.3-0.6-0.6-0.8
		c-0.3-0.2-0.8-0.3-1.6-0.3c-0.8,0-1.3,0.1-1.6,0.3c-0.3,0.2-0.5,0.5-0.6,0.8c-0.1,0.3-0.1,0.7-0.1,1.1v12.7c0,0.4,0,0.7,0.1,1.1
		C52.3,38.8,52.5,39.1,52.8,39.3"/>
	<path class="st2" d="M22.2,80.7c0.3,0.2,0.8,0.3,1.6,0.3h9c0.4,0,0.7,0,1.1-0.1c0.3-0.1,0.6-0.3,0.8-0.6c0.2-0.3,0.3-0.8,0.3-1.6
		c0-0.8-0.1-1.3-0.3-1.6c-0.2-0.3-0.5-0.5-0.8-0.6c-0.3-0.1-0.7-0.1-1.1-0.1h-6.8v-2.2h4.5c0.4,0,0.7,0,1-0.1c0.3,0,0.6-0.2,0.7-0.5
		c0.2-0.3,0.3-0.7,0.3-1.3c0-0.7-0.1-1.1-0.3-1.4c-0.2-0.3-0.4-0.4-0.7-0.5c-0.3-0.1-0.6-0.1-1-0.1h-4.5v-2.2h6.8
		c0.4,0,0.7,0,1.1-0.1c0.3-0.1,0.6-0.3,0.8-0.6c0.2-0.3,0.3-0.8,0.3-1.6c0-0.8-0.1-1.3-0.3-1.6c-0.2-0.3-0.5-0.5-0.8-0.6
		c-0.3-0.1-0.7-0.1-1.1-0.1h-9c-0.9,0-1.5,0.2-1.8,0.5c-0.3,0.3-0.5,0.9-0.5,1.8v12.7c0,0.4,0,0.7,0.1,1.1
		C21.7,80.2,21.9,80.5,22.2,80.7"/>
	<path class="st2" d="M41.3,64.2c-0.3-0.2-0.8-0.3-1.6-0.3s-1.3,0.1-1.6,0.3c-0.3,0.2-0.5,0.5-0.6,0.8c-0.1,0.3-0.1,0.7-0.1,1.1
		v12.7c0,0.4,0,0.7,0.1,1.1c0.1,0.4,0.3,0.6,0.6,0.9c0.3,0.2,0.8,0.3,1.6,0.3c0.8,0,1.3-0.1,1.6-0.3c0.3-0.2,0.5-0.5,0.6-0.8
		c0.1-0.3,0.1-0.7,0.1-1.1V66.1c0-0.4,0-0.7-0.1-1.1C41.8,64.7,41.6,64.4,41.3,64.2"/>
	<path class="st2" d="M59.9,64.2c-0.3-0.2-0.8-0.3-1.6-0.3c-0.7,0-1.3,0.1-1.6,0.3c-0.3,0.2-0.5,0.5-0.6,0.8c-0.1,0.3-0.1,0.7-0.1,1
		v7.1L50,64.8c-0.2-0.3-0.5-0.5-0.7-0.7c-0.3-0.2-0.8-0.3-1.5-0.3c-0.7,0-1.3,0.1-1.6,0.3c-0.3,0.2-0.5,0.5-0.6,0.8
		c-0.1,0.3-0.1,0.7-0.1,1v12.8c0,0.4,0,0.7,0.1,1.1c0.1,0.3,0.3,0.6,0.6,0.8c0.3,0.2,0.8,0.3,1.5,0.3c0.8,0,1.3-0.1,1.6-0.3
		c0.3-0.2,0.5-0.5,0.6-0.8c0.1-0.3,0.1-0.7,0.1-1.1V72l6.4,8.4c0.2,0.3,0.4,0.4,0.7,0.5c0.3,0.1,0.7,0.1,1.3,0.1
		c0.8,0,1.3-0.1,1.6-0.3c0.3-0.2,0.5-0.5,0.6-0.8c0.1-0.3,0.1-0.7,0.1-1.1V66.1c0-0.4,0-0.7-0.1-1.1C60.4,64.7,60.2,64.4,59.9,64.2"
		/>
	<path class="st2" d="M75.3,68.3c0.4,0,0.7,0,1.1-0.1c0.3-0.1,0.6-0.3,0.8-0.6c0.2-0.3,0.3-0.8,0.3-1.6c0-0.8-0.1-1.3-0.3-1.6
		c-0.2-0.3-0.5-0.5-0.8-0.6c-0.3-0.1-0.7-0.1-1.1-0.1h-9c-0.9,0-1.5,0.2-1.8,0.5c-0.3,0.3-0.5,0.9-0.5,1.8v12.7c0,0.4,0,0.7,0.1,1.1
		c0.1,0.4,0.3,0.6,0.6,0.9c0.3,0.2,0.8,0.3,1.6,0.3h9c0.4,0,0.7,0,1.1-0.1c0.3-0.1,0.6-0.3,0.8-0.6c0.2-0.3,0.3-0.8,0.3-1.6
		c0-0.8-0.1-1.3-0.3-1.6c-0.2-0.3-0.5-0.5-0.8-0.6c-0.3-0.1-0.7-0.1-1.1-0.1h-6.8v-2.2H73c0.4,0,0.7,0,1-0.1c0.3,0,0.6-0.2,0.7-0.5
		c0.2-0.3,0.3-0.7,0.3-1.3c0-0.7-0.1-1.1-0.3-1.4c-0.2-0.3-0.4-0.4-0.7-0.5c-0.3-0.1-0.6-0.1-1-0.1h-4.5v-2.2H75.3z"/>
	<path class="st2" d="M84.2,79.9c0.1-0.3,0.1-0.7,0.1-1.1V72l6.4,8.4c0.2,0.3,0.4,0.4,0.7,0.5c0.3,0.1,0.7,0.1,1.3,0.1
		c0.8,0,1.3-0.1,1.6-0.3c0.3-0.2,0.5-0.5,0.6-0.8c0.1-0.3,0.1-0.7,0.1-1.1V66.1c0-0.4,0-0.7-0.1-1.1c-0.1-0.3-0.3-0.6-0.6-0.8
		c-0.3-0.2-0.8-0.3-1.6-0.3c-0.7,0-1.3,0.1-1.6,0.3c-0.3,0.2-0.5,0.5-0.6,0.8c-0.1,0.3-0.1,0.7-0.1,1v7.1l-6.1-8.3
		c-0.2-0.3-0.5-0.5-0.7-0.7c-0.3-0.2-0.8-0.3-1.5-0.3c-0.7,0-1.3,0.1-1.6,0.3c-0.3,0.2-0.5,0.5-0.6,0.8c-0.1,0.3-0.1,0.7-0.1,1v12.8
		c0,0.4,0,0.7,0.1,1.1c0.1,0.3,0.3,0.6,0.6,0.8c0.3,0.2,0.8,0.3,1.5,0.3c0.8,0,1.3-0.1,1.6-0.3C83.9,80.5,84.1,80.2,84.2,79.9"/>
	<path class="st2" d="M47.8,43.5c-0.3,0.2-0.5,0.5-0.6,0.8c-0.1,0.3-0.1,0.7-0.1,1.1v4.4h-5.6v-4.4c0-0.4,0-0.7-0.1-1.1
		c-0.1-0.3-0.2-0.6-0.6-0.8c-0.3-0.2-0.8-0.3-1.6-0.3c-0.8,0-1.3,0.1-1.6,0.3c-0.3,0.2-0.5,0.5-0.6,0.8C37,44.7,37,45,37,45.4v12.7
		c0,0.4,0,0.7,0.1,1.1c0.1,0.4,0.3,0.6,0.6,0.9c0.3,0.2,0.8,0.3,1.6,0.3c0.8,0,1.3-0.1,1.6-0.3c0.3-0.2,0.5-0.5,0.6-0.8
		c0.1-0.3,0.1-0.7,0.1-1.1v-4.4h5.6v4.4c0,0.4,0,0.7,0.1,1.1c0.1,0.4,0.3,0.6,0.6,0.9c0.3,0.2,0.8,0.3,1.6,0.3
		c0.8,0,1.3-0.1,1.6-0.3c0.3-0.2,0.5-0.5,0.6-0.8c0.1-0.3,0.1-0.7,0.1-1.1V45.4c0-0.4,0-0.7-0.1-1.1c-0.1-0.3-0.3-0.6-0.6-0.8
		c-0.3-0.2-0.8-0.3-1.6-0.3C48.6,43.2,48.1,43.3,47.8,43.5"/>
	<path class="st2" d="M78.8,47.6h3c0.5,0,0.8,0.1,1,0.2c0.2,0.1,0.3,0.4,0.3,0.8c0,0.2,0,0.4,0,0.5c0,0.1-0.1,0.2-0.1,0.3
		c-0.1,0.1-0.1,0.1-0.2,0.1c-0.1,0-0.2,0-0.3,0H82c-0.7,0-1.2,0.1-1.5,0.4c-0.3,0.3-0.5,0.7-0.5,1.4c0,0.7,0.1,1.2,0.4,1.5
		c0.3,0.3,0.7,0.4,1.4,0.4h0.3c0.2,0,0.3,0,0.5,0c0.1,0,0.3,0,0.4,0.1c0.1,0,0.2,0.1,0.3,0.2c0.1,0.1,0.1,0.2,0.2,0.4
		c0,0.2,0.1,0.3,0.1,0.6c0,0.4-0.1,0.8-0.2,0.9c-0.2,0.2-0.3,0.3-0.5,0.3c-0.2,0-0.4,0.1-0.5,0.1h-3.5V47.6z M75,60
		c0.3,0.2,0.8,0.3,1.6,0.3h6c0.7,0,1.4-0.1,2.1-0.4c0.7-0.3,1.2-0.7,1.7-1.2c0.5-0.5,0.9-1.1,1.2-1.8c0.3-0.7,0.4-1.4,0.5-2.2
		c0-0.4,0-0.8-0.1-1.3c-0.1-0.4-0.2-0.8-0.4-1.2c-0.2-0.4-0.4-0.8-0.7-1.1c0.2-0.3,0.3-0.6,0.5-0.9c0.1-0.3,0.2-0.6,0.3-0.9
		c0.1-0.3,0.1-0.6,0.1-0.9c0-0.9-0.2-1.8-0.7-2.6c-0.5-0.8-1.1-1.4-1.9-1.9c-0.8-0.5-1.7-0.7-2.7-0.7h-5.8c-0.8,0-1.3,0.1-1.6,0.3
		c-0.3,0.2-0.5,0.5-0.6,0.8c-0.1,0.3-0.1,0.7-0.1,1.1v12.7c0,0.4,0,0.7,0.1,1.1C74.5,59.5,74.7,59.8,75,60"/>
	<path class="st2" d="M92.1,60c0.3,0.2,0.8,0.3,1.6,0.3h9c0.4,0,0.7,0,1.1-0.1c0.3-0.1,0.6-0.3,0.8-0.6c0.2-0.3,0.3-0.8,0.3-1.6
		c0-0.8-0.1-1.3-0.3-1.6c-0.2-0.3-0.5-0.5-0.8-0.6c-0.3-0.1-0.7-0.1-1.1-0.1h-6.8v-2.2h4.5c0.4,0,0.7,0,1-0.1c0.3,0,0.6-0.2,0.7-0.5
		c0.2-0.3,0.3-0.7,0.3-1.3c0-0.7-0.1-1.1-0.3-1.4c-0.2-0.3-0.4-0.4-0.7-0.5c-0.3-0.1-0.6-0.1-1-0.1h-4.5v-2.2h6.8
		c0.4,0,0.7,0,1.1-0.1c0.3-0.1,0.6-0.3,0.8-0.6c0.2-0.3,0.3-0.8,0.3-1.6c0-0.8-0.1-1.3-0.3-1.6c-0.2-0.3-0.5-0.5-0.8-0.6
		c-0.3-0.1-0.7-0.1-1.1-0.1h-9c-0.9,0-1.5,0.2-1.8,0.5c-0.3,0.3-0.5,0.9-0.5,1.8v12.7c0,0.4,0,0.7,0.1,1.1
		C91.6,59.5,91.7,59.8,92.1,60"/>
	<path class="st2" d="M61,54.3l1.8-3.7l1.8,3.7H61z M64.3,43.8c-0.2-0.2-0.4-0.3-0.7-0.5c-0.3-0.1-0.5-0.2-0.8-0.2
		c-0.4,0-0.8,0.1-1.2,0.4c-0.4,0.2-0.7,0.6-0.9,0.9l-6.2,12.8c-0.2,0.5-0.4,0.9-0.4,1.3c0,0.3,0.1,0.6,0.3,0.9
		c0.2,0.3,0.6,0.5,1.1,0.8c0.8,0.4,1.4,0.5,1.8,0.4c0.4-0.1,0.8-0.6,1.2-1.4l0.5-1h7.3l0.5,1c0.4,0.8,0.8,1.3,1.2,1.4
		c0.4,0.1,1,0,1.8-0.4c0.5-0.3,0.9-0.5,1.1-0.8c0.2-0.3,0.3-0.6,0.3-0.9c0-0.3-0.1-0.8-0.4-1.3l-6.2-12.8
		C64.7,44.2,64.5,44,64.3,43.8"/>
	<path class="st2" d="M24.8,92.9c-0.3-0.4-0.7-0.7-1.1-0.9c-0.4-0.2-0.8-0.4-1.3-0.6c-0.5-0.2-1.1-0.3-1.6-0.4
		c-0.5-0.1-1-0.2-1.4-0.3c-0.4-0.1-0.8-0.2-1-0.4c-0.3-0.2-0.4-0.5-0.4-0.8c0-0.1,0-0.3,0.1-0.4c0.1-0.1,0.2-0.2,0.3-0.3
		c0.1-0.1,0.3-0.2,0.4-0.2c0.2-0.1,0.3-0.1,0.5-0.1c0.4,0,0.8,0,1,0.1c0.2,0.1,0.4,0.2,0.5,0.3c0.1,0.1,0.3,0.2,0.4,0.3
		c0.6,0.4,1.2,0.5,1.6,0.5c0.5-0.1,1-0.5,1.5-1.2c0.4-0.7,0.6-1.2,0.6-1.5c0-0.4-0.3-0.8-0.9-1.3c0,0-0.2-0.2-0.4-0.3
		c-0.2-0.2-0.5-0.3-0.8-0.5c-0.4-0.2-0.8-0.3-1.4-0.5c-0.6-0.1-1.3-0.2-2.1-0.2c-1.1,0-2.1,0.2-3,0.7c-0.9,0.5-1.6,1.1-2.1,1.9
		c-0.5,0.8-0.8,1.7-0.8,2.7c0,0.6,0.1,1.1,0.2,1.5c0.1,0.4,0.3,0.8,0.5,1.2c0.2,0.4,0.4,0.7,0.7,0.9c0.3,0.3,0.6,0.5,0.9,0.7
		c0.3,0.2,0.6,0.4,1,0.5c0.5,0.2,1.1,0.4,1.6,0.6c0.6,0.1,1.1,0.3,1.5,0.4c0.5,0.1,0.8,0.3,1.1,0.4c0.3,0.2,0.4,0.4,0.4,0.7
		c0,0.3-0.1,0.6-0.2,0.8c-0.1,0.2-0.3,0.4-0.6,0.5c-0.3,0.1-0.6,0.2-1.1,0.2c-0.4,0-0.7-0.1-1-0.2c-0.3-0.2-0.6-0.5-1-0.9
		c-0.3-0.4-0.7-0.7-1-0.9c-0.4-0.2-0.7-0.3-1.1-0.2c-0.4,0-0.7,0.2-1.1,0.6c-0.4,0.4-0.7,0.8-0.9,1.1c-0.2,0.3-0.2,0.7-0.1,1
		c0.1,0.3,0.3,0.7,0.6,1.1c0,0.1,0.2,0.2,0.4,0.5c0.2,0.3,0.6,0.6,1,0.9c0.4,0.3,1,0.6,1.7,0.9c0.7,0.2,1.5,0.4,2.5,0.4
		c0.6,0,1.3-0.1,2.1-0.3c0.7-0.2,1.4-0.5,2.1-1c0.6-0.5,1.2-1,1.6-1.8c0.4-0.7,0.6-1.7,0.6-2.7c0-0.8-0.1-1.4-0.3-2
		C25.4,93.7,25.1,93.3,24.8,92.9"/>
	<path class="st2" d="M34,89.9c0.4-0.3,0.9-0.6,1.4-0.7c0.5-0.2,1-0.2,1.4-0.2c0.5,0,0.9,0,1.2,0.1c0.3,0.1,0.6,0.2,0.7,0.3
		c0.2,0.1,0.3,0.2,0.4,0.3c0.3,0.2,0.5,0.3,0.7,0.4c0.2,0.1,0.4,0.1,0.6,0.1c0.3,0,0.6-0.1,0.8-0.3c0.3-0.2,0.6-0.5,0.9-1
		c0.2-0.2,0.3-0.5,0.4-0.7c0.1-0.2,0.1-0.5,0.1-0.7c0-0.4-0.1-0.8-0.4-1c-0.3-0.3-0.6-0.5-0.9-0.7c-0.1-0.1-0.3-0.2-0.7-0.4
		c-0.4-0.2-0.9-0.4-1.6-0.6c-0.6-0.2-1.4-0.3-2.2-0.3c-0.7,0-1.4,0.1-2.2,0.3c-0.8,0.2-1.6,0.5-2.4,0.9c-0.8,0.4-1.5,1-2.2,1.7
		c-0.7,0.7-1.2,1.5-1.6,2.5c-0.4,1-0.6,2-0.6,3.3c0,1.3,0.2,2.4,0.6,3.4c0.4,1,0.9,1.8,1.6,2.5c0.7,0.7,1.4,1.3,2.2,1.7
		c0.8,0.4,1.6,0.8,2.4,1c0.8,0.2,1.5,0.3,2.1,0.3c0.9,0,1.7-0.1,2.3-0.3c0.6-0.2,1.1-0.4,1.5-0.6c0.4-0.2,0.6-0.4,0.7-0.4
		c0.3-0.2,0.6-0.4,0.9-0.7c0.3-0.2,0.4-0.6,0.4-1c0-0.2,0-0.4-0.1-0.7c-0.1-0.2-0.2-0.5-0.4-0.8c-0.3-0.5-0.6-0.8-0.9-1.1
		c-0.3-0.2-0.6-0.3-0.8-0.3c-0.2,0-0.4,0-0.6,0.1c-0.2,0.1-0.4,0.2-0.6,0.3c-0.2,0.1-0.4,0.3-0.7,0.4c-0.2,0.1-0.5,0.2-0.8,0.3
		c-0.3,0.1-0.7,0.1-1.1,0.1c-0.4,0-0.9-0.1-1.4-0.2c-0.5-0.2-1-0.4-1.4-0.7s-0.8-0.8-1.1-1.3c-0.3-0.5-0.4-1.2-0.4-2
		c0-0.8,0.1-1.4,0.4-2C33.2,90.7,33.5,90.2,34,89.9"/>
	<path class="st2" d="M59.2,84.9c-0.3-0.2-0.8-0.3-1.6-0.3s-1.3,0.1-1.6,0.3c-0.3,0.2-0.5,0.5-0.6,0.8c-0.1,0.3-0.1,0.7-0.1,1.1v4.4
		h-5.6v-4.4c0-0.4,0-0.7-0.1-1.1c-0.1-0.3-0.3-0.6-0.6-0.8c-0.3-0.2-0.8-0.3-1.6-0.3s-1.3,0.1-1.6,0.3c-0.3,0.2-0.5,0.5-0.6,0.8
		c-0.1,0.3-0.1,0.7-0.1,1.1v12.7c0,0.4,0,0.7,0.1,1.1c0.1,0.4,0.3,0.6,0.6,0.9c0.3,0.2,0.8,0.3,1.6,0.3c0.8,0,1.3-0.1,1.6-0.3
		c0.3-0.2,0.5-0.5,0.6-0.8c0.1-0.3,0.1-0.7,0.1-1.1v-4.4h5.6v4.4c0,0.4,0,0.7,0.1,1.1c0.1,0.4,0.3,0.6,0.6,0.9
		c0.3,0.2,0.8,0.3,1.6,0.3c0.8,0,1.3-0.1,1.6-0.3c0.3-0.2,0.5-0.5,0.6-0.8c0.1-0.3,0.1-0.7,0.1-1.1V86.8c0-0.4,0-0.7-0.1-1.1
		C59.7,85.4,59.5,85.1,59.2,84.9"/>
	<path class="st2" d="M111.7,89.1c0.4,0,0.7,0,1.1-0.1c0.3-0.1,0.6-0.3,0.8-0.6s0.3-0.8,0.3-1.6c0-0.8-0.1-1.3-0.3-1.6
		c-0.2-0.3-0.5-0.5-0.8-0.6c-0.3-0.1-0.7-0.1-1.1-0.1h-9c-0.9,0-1.5,0.2-1.8,0.5c-0.3,0.3-0.5,0.9-0.5,1.8v12.7c0,0.4,0,0.7,0.1,1.1
		c0.1,0.4,0.3,0.6,0.6,0.9c0.3,0.2,0.8,0.3,1.6,0.3h9c0.4,0,0.7,0,1.1-0.1c0.3-0.1,0.6-0.3,0.8-0.6c0.2-0.3,0.3-0.8,0.3-1.6
		c0-0.8-0.1-1.3-0.3-1.6s-0.5-0.5-0.8-0.6c-0.3-0.1-0.7-0.1-1.1-0.1h-6.8v-2.2h4.5c0.4,0,0.7,0,1-0.1c0.3,0,0.6-0.2,0.7-0.5
		c0.2-0.3,0.3-0.7,0.3-1.3c0-0.7-0.1-1.1-0.3-1.4c-0.2-0.3-0.4-0.4-0.7-0.5c-0.3-0.1-0.6-0.1-1-0.1h-4.5v-2.2H111.7z"/>
	<path class="st2" d="M131.2,85.8c-0.1-0.3-0.3-0.6-0.6-0.8c-0.3-0.2-0.8-0.3-1.6-0.3c-0.7,0-1.3,0.1-1.6,0.3
		c-0.3,0.2-0.5,0.5-0.6,0.8c-0.1,0.3-0.1,0.7-0.1,1v7.1l-6.1-8.3c-0.2-0.3-0.5-0.5-0.7-0.7c-0.3-0.2-0.8-0.3-1.5-0.3
		c-0.7,0-1.3,0.1-1.6,0.3c-0.3,0.2-0.5,0.5-0.6,0.8c-0.1,0.3-0.1,0.7-0.1,1v12.8c0,0.4,0,0.7,0.1,1.1c0.1,0.3,0.3,0.6,0.6,0.8
		c0.3,0.2,0.8,0.3,1.5,0.3c0.8,0,1.3-0.1,1.6-0.3c0.3-0.2,0.5-0.5,0.6-0.8c0.1-0.3,0.1-0.7,0.1-1.1v-6.8l6.4,8.4
		c0.2,0.3,0.4,0.4,0.7,0.5c0.3,0.1,0.7,0.1,1.3,0.1c0.8,0,1.3-0.1,1.6-0.3c0.3-0.2,0.5-0.5,0.6-0.8c0.1-0.3,0.1-0.7,0.1-1.1V86.8
		C131.3,86.5,131.3,86.1,131.2,85.8"/>
	<path class="st2" d="M69.3,95.7l1.8-3.7l1.8,3.7H69.3z M73.1,85.9c-0.1-0.3-0.3-0.5-0.5-0.7c-0.2-0.2-0.4-0.3-0.7-0.5
		c-0.3-0.1-0.5-0.2-0.8-0.2c-0.4,0-0.8,0.1-1.2,0.4c-0.4,0.2-0.7,0.6-0.9,0.9l-6.2,12.8c-0.2,0.5-0.4,0.9-0.4,1.3
		c0,0.3,0.1,0.6,0.3,0.9c0.2,0.3,0.6,0.5,1.1,0.8c0.8,0.4,1.4,0.5,1.8,0.4c0.4-0.1,0.8-0.6,1.2-1.4l0.5-1h7.3l0.5,1
		c0.4,0.8,0.8,1.3,1.2,1.4c0.4,0.1,1,0,1.8-0.4c0.5-0.3,0.9-0.5,1.1-0.8c0.2-0.3,0.3-0.6,0.3-0.9c0-0.3-0.1-0.8-0.4-1.3L73.1,85.9z"
		/>
	<path class="st2" d="M92.4,95.2c-0.4,0.6-0.9,1.1-1.5,1.5c-0.6,0.4-1.3,0.6-2,0.6h-2v-8.2h2c0.8,0,1.4,0.2,2.1,0.6
		c0.6,0.4,1.1,0.9,1.5,1.5c0.4,0.6,0.6,1.3,0.6,2.1C93,93.9,92.8,94.6,92.4,95.2 M94.9,87.1c-0.8-0.8-1.7-1.4-2.7-1.8
		c-1-0.4-2.1-0.7-3.3-0.7h-4.2c-0.8,0-1.3,0.1-1.6,0.3c-0.3,0.2-0.5,0.5-0.6,0.8c-0.1,0.3-0.1,0.7-0.1,1.1v12.7c0,0.4,0,0.8,0.1,1.1
		c0.1,0.3,0.3,0.6,0.6,0.8c0.3,0.2,0.8,0.3,1.5,0.3h4.2c1.2,0,2.3-0.2,3.4-0.7c1-0.4,2-1.1,2.8-1.9c0.8-0.8,1.4-1.7,1.9-2.8
		c0.5-1,0.7-2.2,0.7-3.4c0-1.2-0.2-2.3-0.7-3.3C96.3,88.7,95.7,87.8,94.9,87.1"/>
</g>
<circle class="st2" cx="122.4" cy="122.4" r="17.7"/>
<g>
	<path class="st1" d="M131.7,119.6c0.3,0,0.5,0,0.7-0.1c0.2,0,0.4-0.2,0.6-0.4c0.2-0.2,0.2-0.6,0.2-1.1c0-0.5-0.1-0.9-0.2-1.1
		c-0.2-0.2-0.3-0.3-0.6-0.4c-0.2,0-0.5-0.1-0.7-0.1h-6.2c-0.6,0-1,0.1-1.2,0.3c-0.2,0.2-0.3,0.6-0.3,1.2v8.7c0,0.2,0,0.5,0.1,0.7
		c0,0.2,0.2,0.4,0.4,0.6c0.2,0.2,0.6,0.2,1.1,0.2h6.2c0.3,0,0.5,0,0.7-0.1c0.2,0,0.4-0.2,0.6-0.4c0.2-0.2,0.2-0.6,0.2-1.1
		c0-0.5-0.1-0.9-0.2-1.1c-0.2-0.2-0.3-0.3-0.6-0.4c-0.2,0-0.5-0.1-0.7-0.1H127v-1.5h3.1c0.3,0,0.5,0,0.7-0.1c0.2,0,0.4-0.1,0.5-0.3
		c0.1-0.2,0.2-0.5,0.2-0.9c0-0.4-0.1-0.8-0.2-0.9c-0.1-0.2-0.3-0.3-0.5-0.3c-0.2,0-0.4-0.1-0.7-0.1H127v-1.5H131.7z"/>
	<path class="st1" d="M118.4,123.8c-0.3,0.4-0.6,0.8-1,1c-0.4,0.3-0.9,0.4-1.4,0.4h-1.4v-5.6h1.3c0.5,0,1,0.1,1.4,0.4
		c0.4,0.3,0.8,0.6,1,1c0.3,0.4,0.4,0.9,0.4,1.4C118.8,122.9,118.7,123.4,118.4,123.8 M120.2,118.2c-0.5-0.5-1.2-1-1.9-1.3
		c-0.7-0.3-1.5-0.5-2.3-0.5h-2.9c-0.5,0-0.9,0.1-1.1,0.2c-0.2,0.2-0.3,0.3-0.4,0.6c0,0.2-0.1,0.5-0.1,0.7v8.7c0,0.3,0,0.5,0.1,0.8
		c0.1,0.2,0.2,0.4,0.4,0.6c0.2,0.1,0.6,0.2,1,0.2h2.9c0.8,0,1.6-0.2,2.3-0.5c0.7-0.3,1.3-0.7,1.9-1.3c0.5-0.5,1-1.2,1.3-1.9
		c0.3-0.7,0.5-1.5,0.5-2.3c0-0.8-0.2-1.6-0.5-2.3C121.1,119.4,120.7,118.7,120.2,118.2"/>
</g>
</svg>
